<?xml version="1.0" encoding="UTF-8"?>
<svg version="1.1" xmlns="http://www.w3.org/2000/svg" width="512" height="512">
<path d="M0 0 C1.09054687 0.58910156 2.18109375 1.17820312 3.3046875 1.78515625 C10.09907945 5.57998839 16.10538537 9.92987327 22 15 C22.82242187 15.69996094 23.64484375 16.39992187 24.4921875 17.12109375 C32.42430341 24.05242868 39.48422769 31.72883698 46 40 C46.72413086 39.85925049 47.44826172 39.71850098 48.19433594 39.57348633 C55.60271029 38.2235344 62.72553275 37.64627004 70.25 37.6875 C71.88569946 37.69595947 71.88569946 37.69595947 73.55444336 37.70458984 C102.46602006 38.1365208 127.14442676 50.36699485 148 70 C148.60328125 70.53882813 149.2065625 71.07765625 149.828125 71.6328125 C168.93953926 89.40464165 179.13929825 116.86947704 180.22265625 142.47265625 C180.97873308 170.95351159 172.31977402 197.16066348 154 219 C153.36964844 219.77085937 152.73929687 220.54171875 152.08984375 221.3359375 C148.13012106 226.04430935 143.72674085 230.07128033 139 234 C139.18175781 234.58265625 139.36351562 235.1653125 139.55078125 235.765625 C147.75071322 262.51001849 148.65173679 286.86462033 135.44140625 311.9609375 C123.39665633 332.12217359 104.19157453 345.55597567 81.5703125 351.2734375 C73.26793583 352.96298024 65.26087074 353.15048013 56.8092804 353.15390015 C55.47362762 353.15792123 54.13797604 353.16236051 52.8023259 353.1671797 C49.14734625 353.17907703 45.49237976 353.18477752 41.83738458 353.18936086 C37.88987205 353.19534226 33.94237505 353.20694484 29.99487305 353.21765137 C20.47493954 353.24210485 10.95500094 353.25678559 1.43504575 353.26971143 C-1.25370924 353.27342643 -3.94246372 353.27739934 -6.63121819 353.2814641 C-23.33410741 353.30668729 -40.0369975 353.32873623 -56.73990154 353.34119225 C-60.60304963 353.3441218 -64.46619768 353.3470835 -68.3293457 353.35009766 C-69.28947871 353.35084371 -70.24961172 353.35158976 -71.23883966 353.35235842 C-86.81610435 353.3650308 -102.39325539 353.39828501 -117.97046687 353.43989949 C-133.96607058 353.48228179 -149.96161597 353.50588235 -165.95727569 353.51111281 C-174.93745784 353.51452949 -183.91746182 353.52631626 -192.89758873 353.55921555 C-200.53892877 353.58716528 -208.18005405 353.5982374 -215.82144126 353.58702008 C-219.72092607 353.58182181 -223.61996071 353.58479566 -227.51938057 353.60948563 C-231.74331245 353.6360081 -235.96624675 353.62395909 -240.19023132 353.60800171 C-241.42698646 353.6218838 -242.66374159 353.63576588 -243.93797415 353.65006864 C-253.15890438 353.56381248 -253.15890438 353.56381248 -256.29670429 350.68856239 C-258 348 -258 348 -258.0625 344.375 C-256.87893708 340.61544718 -256.31954189 339.9108415 -253 338 C-250.43014449 337.62559515 -250.43014449 337.62559515 -247.45844555 337.62641239 C-246.32414488 337.61942265 -245.18984421 337.6124329 -244.02117079 337.60523134 C-242.77460481 337.6128074 -241.52803883 337.62038345 -240.24369812 337.62818909 C-238.90624827 337.62561482 -237.56880042 337.62171415 -236.23135787 337.6165995 C-232.55235788 337.60630796 -228.87359709 337.61464083 -225.19460857 337.62589633 C-221.22774468 337.63473716 -217.2609151 337.62625012 -213.29405212 337.61968994 C-206.41657528 337.61052436 -199.53916512 337.61186955 -192.66168785 337.61987495 C-182.70164096 337.63110305 -172.74168914 337.62206756 -162.78165052 337.60731315 C-146.60109873 337.58352487 -130.42055866 337.57017385 -114.23999023 337.56616211 C-112.7868746 337.56579481 -112.7868746 337.56579481 -111.3044031 337.56542008 C-100.5089451 337.56287699 -89.71348801 337.56230581 -78.91802979 337.56335449 C-75.01005046 337.56368748 -71.10207113 337.56397289 -67.1940918 337.56420898 C-66.22986318 337.56427177 -65.26563456 337.56433456 -64.2721869 337.56439925 C-48.1658956 337.56500511 -32.05965827 337.55007766 -15.95338947 337.52337593 C-6.0262751 337.50760387 3.90066457 337.50527821 13.82778069 337.52050995 C20.64085418 337.53000793 27.45382283 337.52516874 34.26688407 337.50929613 C38.19180948 337.50063872 42.11645583 337.49837148 46.04136658 337.51382256 C49.64494135 337.52789432 53.24801436 337.52312867 56.85156288 337.50430154 C58.75104961 337.49905904 60.65056054 337.51326911 62.54999334 337.52851206 C80.93496233 337.37679087 97.5645777 330.67281069 111 318 C124.40801822 304.28273589 130.54838264 286.83659745 130.42211914 267.80688477 C129.8153458 249.00884785 121.30811743 232.5860609 107.75 219.8125 C91.99203704 206.43309749 74.12382569 202.56401642 54 204 C41.26020442 206.16459167 28.70811316 213.55674991 21 224 C13.59938115 234.50050071 10.16355303 245.4514748 9.83984375 258.21875 C9.79875488 259.6265271 9.79875488 259.6265271 9.75683594 261.06274414 C9.7112033 262.95473123 9.68908543 264.84745579 9.69238281 266.73999023 C9.5535715 273.37918937 9.5535715 273.37918937 6.65234375 276.6328125 C4 278 4 278 0.875 277.9375 C-2.09016094 276.97059969 -3.10745319 276.39234761 -5 274 C-5.34057617 272.09887695 -5.34057617 272.09887695 -5.29296875 269.98828125 C-5.28547607 269.30548096 -5.2779834 268.62268066 -5.27026367 267.91918945 C-5.22929565 266.62887817 -5.22929565 266.62887817 -5.1875 265.3125 C-5.125625 262.569375 -5.06375 259.82625 -5 257 C-11.93 257 -18.86 257 -26 257 C-26.33 258.98 -26.66 260.96 -27 263 C-30.10772147 271.07452632 -35.92297773 277.28072801 -43.5234375 281.3515625 C-51.72255666 284.85826269 -59.93919953 285.14983875 -68.7331543 285.16113281 C-69.67238739 285.16609772 -70.61162048 285.17106262 -71.57931519 285.17617798 C-74.66095734 285.19068753 -77.74254817 285.19757975 -80.82421875 285.203125 C-82.97557068 285.20888195 -85.12692261 285.21463961 -87.27827454 285.22039795 C-91.77609494 285.23087335 -96.27389764 285.23673986 -100.77172852 285.24023438 C-106.53530553 285.24573786 -112.29864855 285.2698199 -118.06215191 285.29820633 C-122.49993075 285.31681604 -126.93765273 285.32203723 -131.3754673 285.32357025 C-133.5009471 285.32659675 -135.6264259 285.33462518 -137.75186729 285.34775543 C-140.71977132 285.36479457 -143.68709631 285.3629418 -146.6550293 285.35644531 C-147.5315062 285.3656601 -148.40798309 285.37487488 -149.3110199 285.3843689 C-154.48712084 285.34884575 -158.15502549 284.84497451 -162 281 C-162.57581807 274.8963285 -162.57581807 274.8963285 -160.58711243 271.80067444 C-156.64491939 269.05684075 -152.99007869 269.45242063 -148.29370117 269.50170898 C-147.30949692 269.49619019 -146.32529266 269.49067139 -145.31126404 269.48498535 C-143.17454714 269.47566084 -141.03777468 269.47556388 -138.90105247 269.48357964 C-135.51702972 269.49619041 -132.13382498 269.48493612 -128.74983215 269.46754456 C-122.7831849 269.44080689 -116.81673731 269.43525004 -110.85003662 269.43664551 C-101.31022664 269.4388712 -91.77066453 269.42472769 -82.23095131 269.38105965 C-78.90116472 269.37122866 -75.57176767 269.37993652 -72.24198914 269.38975525 C-70.19281765 269.38360918 -68.14364828 269.37669683 -66.09448242 269.36889648 C-65.1721582 269.37661575 -64.24983398 269.38433502 -63.29956055 269.39228821 C-55.57483431 269.33173751 -49.701072 267.54270889 -44 262 C-40.07400277 256.58483141 -40.10623496 250.42499018 -41 244 C-43.15903931 238.29792183 -46.64357723 234.91109933 -52 232 C-57.57413253 230.14195582 -62.94275568 230.19368616 -68.3125 232.6875 C-73.07602155 235.36757276 -75.80891937 239.054418 -78 244 C-78.54264183 246.54438724 -78.94169636 249.08959298 -79.33984375 251.66015625 C-80.10269696 254.36399693 -80.82939577 255.25711235 -83 257 C-84.91462898 257.38031673 -84.91462898 257.38031673 -87.11868286 257.38768005 C-88.37538284 257.402537 -88.37538284 257.402537 -89.6574707 257.41769409 C-90.57375244 257.41319244 -91.49003418 257.4086908 -92.43408203 257.40405273 C-93.88607498 257.41434761 -93.88607498 257.41434761 -95.36740112 257.42485046 C-98.58101941 257.44320746 -101.79415278 257.43926318 -105.0078125 257.43359375 C-107.24966592 257.43815619 -109.49151793 257.44346195 -111.73336792 257.44947815 C-116.44616346 257.45843035 -121.15878982 257.45596787 -125.87158203 257.44604492 C-131.86853202 257.43464081 -137.86488565 257.45462372 -143.86175728 257.48396206 C-148.50165443 257.50246086 -153.14141289 257.50200305 -157.78133774 257.49632454 C-159.98900047 257.49617252 -162.19667334 257.50211704 -164.40430069 257.51461601 C-180.50067951 257.59280378 -196.07892369 256.72585643 -210.75 249.375 C-211.44335449 249.03799072 -212.13670898 248.70098145 -212.85107422 248.35375977 C-219.93327941 244.76710198 -226.0152934 240.17874325 -232 235 C-232.67289063 234.42765625 -233.34578125 233.8553125 -234.0390625 233.265625 C-248.70976758 219.73374177 -257.2482757 199.25352026 -258.27734375 179.5859375 C-259.02010124 156.04681974 -251.50391395 134.63364185 -235.39086914 117.35009766 C-226.38570925 108.06433231 -216.01057749 101.62861165 -204 97 C-203.01 97 -202.02 97 -201 97 C-200.938125 95.865625 -200.87625 94.73125 -200.8125 93.5625 C-198.02127509 69.70683114 -185.15524368 48.04337459 -170 30 C-169.37480469 29.23945312 -168.74960938 28.47890625 -168.10546875 27.6953125 C-162.99163066 21.67535646 -157.23923334 16.82004573 -151 12 C-149.80697266 11.03126953 -149.80697266 11.03126953 -148.58984375 10.04296875 C-130.11437367 -4.3333479 -107.97280598 -12.58718847 -85 -16 C-84.14664063 -16.13148437 -83.29328125 -16.26296875 -82.4140625 -16.3984375 C-53.91196672 -19.99767826 -24.96382719 -13.87108524 0 0 Z M-99 2 C-99.6717627 2.17660156 -100.34352539 2.35320312 -101.03564453 2.53515625 C-120.68325415 7.88413996 -137.33319524 19.14536358 -152 33 C-152.75023437 33.68578125 -153.50046875 34.3715625 -154.2734375 35.078125 C-169.00722988 49.03645462 -183.78430719 72.33322221 -185 93 C-184.319375 92.97679687 -183.63875 92.95359375 -182.9375 92.9296875 C-167.97185847 92.65107183 -149.58251705 93.86160258 -137 103 C-135.9375 106.4375 -135.9375 106.4375 -136 110 C-137.5 112.5 -137.5 112.5 -140 114 C-145.12770713 113.59733343 -149.74956564 112.22418324 -154.5625 110.5 C-172.21202875 104.21583412 -189.70500324 106.35748799 -206.375 114.25 C-223.94713123 123.63511554 -235.64268919 138.2337372 -241.5 157.1875 C-245.99119156 176.1902305 -242.8977797 194.28546152 -233 211 C-222.27296381 226.6250414 -206.34023114 237.42003691 -187.84375 241.52734375 C-181.29632534 242.61558329 -175.00602811 243.14500327 -168.38085938 243.11352539 C-167.56039124 243.11367142 -166.7399231 243.11381744 -165.89459229 243.1139679 C-163.2109503 243.11327706 -160.5273797 243.10552389 -157.84375 243.09765625 C-155.97188352 243.09578912 -154.10001656 243.09436661 -152.22814941 243.09336853 C-147.32257721 243.08956659 -142.41703503 243.07975632 -137.51147461 243.06866455 C-132.4972372 243.0584003 -127.4829949 243.0538602 -122.46875 243.04882812 C-112.64582021 243.0381318 -102.82291261 243.02108352 -93 243 C-92.73413589 242.2417392 -92.46827179 241.48347839 -92.1943512 240.70223999 C-91.84090134 239.70914825 -91.48745148 238.71605652 -91.12329102 237.69287109 C-90.77492691 236.70773529 -90.42656281 235.72259949 -90.06764221 234.70761108 C-87.25398166 227.57198231 -81.49358033 222.37328034 -74.75 218.9375 C-64.89272412 215.0442902 -54.49747132 214.91584226 -44.73046875 218.93359375 C-36.35036704 223.05940192 -30.71202715 229.30549966 -27.5 238.0625 C-26.7575 240.5065625 -26.7575 240.5065625 -26 243 C-18.74 243 -11.48 243 -4 243 C-3.154375 240.6075 -2.30875 238.215 -1.4375 235.75 C5.25518135 217.60264381 15.76093609 204.33859448 33.046875 195.4296875 C51.76933969 187.15812241 72.8973701 186.21125312 92.13671875 193.51171875 C106.65788958 199.38280751 119.39226373 208.50994285 129 221 C143.00621786 215.10435946 153.09718636 196.5020003 158.72387695 183.17724609 C168.09829557 159.41504612 167.76769866 133.11738654 157.75 109.625 C146.95512866 85.87628305 127.28706452 67.47705035 103 58 C79.32156335 49.18584783 53.88541017 50.34829168 30.86328125 60.59765625 C21.27184469 65.29523568 13.00074325 70.92927945 5 78 C4.06414062 78.81017578 4.06414062 78.81017578 3.109375 79.63671875 C-15.03338534 96.46540065 -23.7579771 120.61764642 -25.14208984 144.79443359 C-25.56203425 150.508806 -25.56203425 150.508806 -27.83203125 153.0546875 C-31.12277225 154.48956916 -33.58777421 153.83696104 -37 153 C-42.67239327 141.65521346 -36.66194243 122.25077961 -33 111 C-21.81366526 79.51507678 1.14127454 60.1142261 30 45 C12.98537623 20.76705099 -15.18426777 4.9237789 -43.9921875 -0.52734375 C-45.48105469 -0.76130859 -45.48105469 -0.76130859 -47 -1 C-48.04027344 -1.18046875 -49.08054688 -1.3609375 -50.15234375 -1.546875 C-66.64079793 -3.4886625 -83.00471504 -2.29670986 -99 2 Z " fill="#000000" transform="translate(295,88)"/>
<path d="M0 0 C0.99804007 -0.00679667 0.99804007 -0.00679667 2.01624256 -0.01373065 C4.25024285 -0.02641136 6.4840005 -0.02475196 8.71803284 -0.02310181 C10.31787938 -0.02908473 11.91772303 -0.03588973 13.51756287 -0.04345703 C17.86670404 -0.06114718 22.21576655 -0.06581364 26.56494021 -0.0670886 C30.19330144 -0.06898612 33.82164428 -0.07634186 37.44999844 -0.08343279 C46.00859097 -0.09972541 54.56714142 -0.10460091 63.12574768 -0.10317993 C71.9605157 -0.1019779 80.79503966 -0.12309 89.6297459 -0.15466726 C97.21028497 -0.18079837 104.79074416 -0.19154858 112.37132794 -0.19026911 C116.90093342 -0.18975859 121.43032203 -0.19549133 125.95988274 -0.21662521 C130.21907746 -0.23595475 134.47784723 -0.23616861 138.73705673 -0.22159195 C140.30117855 -0.21949623 141.8653266 -0.22425005 143.42940331 -0.23631287 C145.56313915 -0.25170472 147.6953985 -0.24249985 149.82910156 -0.22705078 C151.02353599 -0.22814032 152.21797041 -0.22922985 153.44859982 -0.2303524 C157.11102741 0.3714334 158.29089737 1.31290415 160.4780426 4.26742554 C161.0405426 7.76742554 161.0405426 7.76742554 160.4780426 11.26742554 C157.82410311 14.00985817 156.15311124 15.15966915 152.35958004 15.76520348 C151.18211492 15.76411394 150.00464979 15.76302441 148.79150391 15.76190186 C148.13260212 15.76673069 147.47370032 15.77155952 146.79483181 15.77653468 C144.59434547 15.78777645 142.39502888 15.77051049 140.19459534 15.75326538 C138.61415798 15.75541198 137.03372216 15.75929076 135.45329285 15.76477051 C131.16611122 15.7744578 126.87934652 15.75916892 122.5922153 15.73886442 C118.10576275 15.72128838 113.61932298 15.72481859 109.13284302 15.72558594 C101.59980803 15.7237134 94.06693427 15.70635494 86.53395081 15.67904663 C77.82303386 15.64758493 69.1122934 15.63705087 60.40132374 15.63851774 C52.02224492 15.63973819 43.64322361 15.629529 35.26416206 15.61293411 C31.69766351 15.60587095 28.13118531 15.60220798 24.5646801 15.6011467 C20.36626726 15.5991384 16.16800272 15.58693353 11.96963882 15.56681442 C10.42810664 15.56097053 8.8865574 15.55851246 7.34501457 15.55966949 C5.24238437 15.5606505 3.14016994 15.54934428 1.03759766 15.53485107 C-0.13949044 15.53149939 -1.31657854 15.5281477 -2.52933598 15.52469444 C-5.45861175 15.27287122 -7.11971951 14.92876961 -9.5219574 13.26742554 C-11.14481626 9.9479415 -11.73811155 8.13204215 -10.8344574 4.51742554 C-8.11107141 -0.15123616 -4.9688349 0.01394739 0 0 Z " fill="#000000" transform="translate(150.52195739746094,391.7325744628906)"/>
<path d="M0 0 C11.73438489 5.33213402 20.29766394 14.68145503 25.41796875 26.43359375 C29.75221613 39.08378946 29.28530783 52.76432415 24.06640625 65.046875 C17.57876195 77.65690749 7.84182413 86.39207013 -5.640625 91.00390625 C-12.13466153 92.72264267 -18.06980712 93.64661072 -24.640625 92.00390625 C-26.703125 90.37890625 -26.703125 90.37890625 -27.640625 88.00390625 C-27.53304454 81.87181999 -27.53304454 81.87181999 -24.93359375 79.34375 C-22.20987194 77.75220557 -20.14336901 77.46726378 -17.015625 77.12890625 C-8.40910131 75.85736856 -1.3527843 72.72409366 4.359375 66.00390625 C5.04 65.30265625 5.720625 64.60140625 6.421875 63.87890625 C11.49937798 56.34454699 13.60786689 48.01088346 12.359375 39.00390625 C10.01724322 29.38537629 5.83938037 21.91299368 -2.640625 16.62890625 C-7.84217192 13.76844304 -12.27315837 12.08153563 -18.203125 11.69140625 C-21.68801529 11.34350688 -22.71747731 10.95164668 -25.765625 8.87890625 C-27.640625 6.00390625 -27.640625 6.00390625 -27.703125 2.37890625 C-26.640625 -0.99609375 -26.640625 -0.99609375 -25.078125 -2.93359375 C-17.24889663 -6.34633432 -7.54798294 -2.84724209 0 0 Z " fill="#000000" transform="translate(378.640625,313.99609375)"/>
<path d="M0 0 C20.20098555 6.55107883 37.67434138 19.4708679 48.21875 38.16015625 C49.39846668 40.93838903 49.37233837 43.02129305 49 46 C46.90889337 49.05623277 45.70693151 49.86463014 42.0625 50.5625 C36.13821487 49.474366 33.06077563 43.86550334 29.75 39.1875 C19.91209149 26.01115369 7.14334478 18.29834109 -8.609375 13.88671875 C-11.1760583 12.93469733 -12.39266469 12.20419598 -14 10 C-14.43359375 8.0625 -14.43359375 8.0625 -14.4375 6 C-14.45683594 5.319375 -14.47617187 4.63875 -14.49609375 3.9375 C-14 2 -14 2 -12.2421875 0.25390625 C-8.14453014 -2.03764081 -4.43322744 -1.01998421 0 0 Z " fill="#000000" transform="translate(389,156)"/>
<path d="M0 0 C2.9375 2.0625 2.9375 2.0625 5 5 C5.125 8.625 5.125 8.625 4 12 C0.32740018 14.58219222 -3.76142524 16.33835723 -7.8125 18.25 C-19.53636478 24.02578356 -25.21636036 31.4215868 -31.51171875 42.7109375 C-33 45 -33 45 -36 47 C-39.01440049 46.81159997 -41.23740157 46.43213911 -43.875 44.9375 C-45.79767671 41.62622345 -45.71029586 38.63575168 -45 35 C-39.17615361 19.56443964 -25.88869746 8.89709636 -11.54296875 1.78125 C-7.67308523 0.18298071 -4.14173264 -0.73630802 0 0 Z " fill="#000000" transform="translate(107,203)"/>
<path d="M0 0 C1.07242699 -0.00929787 1.07242699 -0.00929787 2.16651917 -0.01878357 C3.67520795 -0.02587154 5.18397511 -0.02272538 6.69262695 -0.01000977 C8.99382456 0.00384555 11.2909434 -0.03020464 13.59179688 -0.06835938 C15.06119891 -0.06931079 16.530606 -0.06745052 18 -0.0625 C18.68348007 -0.07575821 19.36696014 -0.08901642 20.07115173 -0.10267639 C23.87093632 -0.02911539 25.50093485 0.5153391 28.53149414 2.87915039 C30.56640625 5.56640625 30.56640625 5.56640625 30.69140625 9.19140625 C29.56640625 12.56640625 29.56640625 12.56640625 27.43945312 14.25024414 C22.31339008 16.59852812 16.75950225 16.04607082 11.21923828 16.01245117 C9.07227024 16.00392953 6.92795638 16.03274656 4.78125 16.06445312 C3.40755287 16.06606521 2.03385107 16.06548746 0.66015625 16.0625 C-0.58056641 16.06435303 -1.82128906 16.06620605 -3.09960938 16.06811523 C-7.03461576 15.47596247 -8.70181252 14.42348977 -11.43359375 11.56640625 C-12.05431313 7.70415232 -12.18019079 5.60430728 -9.86303711 2.38305664 C-6.63845925 -0.02816674 -3.87664811 -0.02804894 0 0 Z " fill="#000000" transform="translate(96.43359375,391.43359375)"/>
<path d="M0 0 C0.90234375 -0.01546875 1.8046875 -0.0309375 2.734375 -0.046875 C9.27387247 -0.00817975 9.27387247 -0.00817975 12.58984375 2.3125 C14.68973049 5.56994203 14.60801228 7.71681248 14 11.5 C11.16200617 14.64146248 8.8772818 15.75319318 4.75 16.06640625 C3.16678981 16.08619638 1.58318315 16.08434587 0 16.0625 C-0.7940625 16.08634766 -1.588125 16.11019531 -2.40625 16.13476562 C-6.73263766 16.12394966 -8.5011925 15.88617355 -12.02734375 13.15625 C-14 10.5 -14 10.5 -14.5625 7.4375 C-13.0178946 -0.62877266 -6.8330496 -0.11713799 0 0 Z " fill="#000000" transform="translate(331,391.5)"/>
</svg>
