<?xml version="1.0" encoding="UTF-8"?>
<svg version="1.1" xmlns="http://www.w3.org/2000/svg" width="512" height="512">
<path d="M0 0 C0.76670517 -0.00671722 1.53341034 -0.01343445 2.323349 -0.02035522 C4.84478329 -0.03927095 7.36595045 -0.04325623 9.88745117 -0.04541016 C11.65093594 -0.05184287 13.41441965 -0.05857158 15.17790222 -0.06558228 C18.87057976 -0.0775392 22.56316386 -0.08126476 26.25585938 -0.08007812 C30.96998729 -0.0798751 35.68351126 -0.10716715 40.39749622 -0.14162254 C44.03939016 -0.16394417 47.68114 -0.16791405 51.32309532 -0.16685867 C53.06010709 -0.1692071 54.79712328 -0.17798756 56.53406715 -0.19352341 C75.75907899 -0.34937338 75.75907899 -0.34937338 82.90789795 5.84036255 C90.66538277 13.54762353 92.31987089 26.31972431 94.83764648 36.57250977 C95.37352001 38.75079123 95.92089377 40.92596406 96.46948242 43.10107422 C96.81651404 44.49608816 97.16289261 45.89126475 97.50854492 47.28662109 C97.81824219 48.53628662 98.12793945 49.78595215 98.44702148 51.07348633 C99.11791992 54.29052734 99.11791992 54.29052734 99.11791992 58.29052734 C99.91198242 58.36916016 100.70604492 58.44779297 101.52416992 58.52880859 C107.07790267 59.70595847 112.01856598 62.24303103 117.12963867 64.67138672 C117.94045898 65.03425781 118.7512793 65.39712891 119.58666992 65.77099609 C120.31305664 66.11026123 121.03944336 66.44952637 121.7878418 66.79907227 C127.26841338 67.95502266 132.06615689 64.29573483 136.54760742 61.51708984 C137.14163361 61.15207367 137.73565979 60.7870575 138.34768677 60.41098022 C140.23303289 59.25155005 142.11328845 58.0841951 143.99291992 56.91552734 C165.29293151 43.71800271 165.29293151 43.71800271 172.61791992 43.79052734 C173.65948242 43.78021484 174.70104492 43.76990234 175.77416992 43.75927734 C186.10189179 45.40013035 192.53764436 53.08936923 199.57104492 60.14208984 C200.76028885 61.32354596 201.94997357 62.50455851 203.14007568 63.68515015 C205.62456124 66.15476688 208.10122657 68.63191863 210.57299805 71.11425781 C213.72555742 74.27840224 216.90025864 77.41923111 220.08171463 80.55428505 C222.54251462 82.98547719 224.98916766 85.43053786 227.43209076 87.87968063 C228.59629217 89.04286239 229.76516584 90.20138888 230.93894196 91.35490799 C238.35457545 98.65812685 244.66821868 105.43943928 245.61791992 116.29052734 C244.89535637 127.3616706 237.00755527 137.58552668 231.43041992 146.79052734 C230.11092375 148.9844754 228.79344807 151.17962758 227.47612 153.37487793 C226.66099116 154.73148443 225.84417035 156.08707607 225.02546692 157.44152832 C222.97990605 160.81470495 222.97990605 160.81470495 221.11791992 164.29052734 C221.79582245 166.4884705 221.79582245 166.4884705 222.91870117 168.93896484 C223.51908203 170.32341797 223.51908203 170.32341797 224.1315918 171.73583984 C224.56020508 172.70263672 224.98881836 173.66943359 225.43041992 174.66552734 C225.84743164 175.62458984 226.26444336 176.58365234 226.6940918 177.57177734 C227.82065151 180.15190453 228.95213749 182.72788253 230.11791992 185.29052734 C230.38583847 185.97011505 230.65375702 186.64970276 230.92979431 187.34988403 C231.95204835 189.41607853 231.95204835 189.41607853 233.95050049 190.16223145 C234.69185242 190.336698 235.43320435 190.51116455 236.19702148 190.69091797 C237.03839661 190.89793335 237.87977173 191.10494873 238.74664307 191.3182373 C239.65807068 191.52565552 240.56949829 191.73307373 241.50854492 191.94677734 C242.91459991 192.29029236 242.91459991 192.29029236 244.34906006 192.64074707 C247.35181926 193.37301169 250.35909901 194.08361542 253.36791992 194.79052734 C256.36201195 195.49895735 259.35453767 196.21230052 262.34393311 196.94030762 C264.20425751 197.39295776 266.06736895 197.83434635 267.93341064 198.26281738 C274.97705055 199.97027584 280.0859737 202.27548668 284.43041992 208.35302734 C284.92155273 209.02462891 285.41268555 209.69623047 285.91870117 210.38818359 C288.48982119 214.46680069 288.27831919 218.47537912 288.29492188 223.12329102 C288.30477867 224.31899216 288.30477867 224.31899216 288.31483459 225.53884888 C288.33455497 228.17873226 288.34622872 230.81855873 288.35620117 233.45849609 C288.3602767 234.36146235 288.36435223 235.2644286 288.36855125 236.19475746 C288.3894088 240.97610876 288.40371065 245.75743141 288.41308594 250.53881836 C288.42413657 255.46719803 288.45852177 260.39512449 288.49825764 265.32334423 C288.52445984 269.12131057 288.53278108 272.91916963 288.53636742 276.7172184 C288.54122577 278.53321702 288.55281828 280.34921109 288.57140541 282.16512108 C288.59586911 284.71403789 288.59481873 287.26179167 288.58789062 289.81079102 C288.60070068 290.55342697 288.61351074 291.29606293 288.62670898 292.061203 C288.55803044 299.034441 286.04892997 304.55032928 281.18041992 309.54052734 C274.23520223 314.98568027 264.5023735 316.28082374 256.02416992 318.00927734 C253.9289337 318.45419254 251.83435455 318.90207361 249.73999023 319.35107422 C248.31429049 319.64631807 246.88501378 319.92474471 245.45288086 320.18701172 C236.84857188 321.59048039 236.84857188 321.59048039 230.25073242 326.75537109 C228.95386039 329.69920286 228.95386039 329.69920286 228.11938477 332.91137695 C227.11791992 336.29052734 227.11791992 336.29052734 225.19848633 339.60913086 C221.68872199 345.55963108 221.68872199 345.55963108 221.56359863 352.2633667 C223.62913751 357.51532496 226.82663003 362.09051566 229.99291992 366.72802734 C230.90664121 368.14351716 231.81554464 369.56212918 232.71948242 370.98388672 C234.3920881 373.60349782 236.09197923 376.20018048 237.82446289 378.78051758 C242.70003909 386.11773775 246.19280829 392.1944078 245.11791992 401.29052734 C242.92863869 409.81275872 238.13802547 415.16468171 231.93041992 421.16552734 C230.71128906 422.40689453 230.71128906 422.40689453 229.4675293 423.67333984 C223.75319446 429.3103925 218.34888514 433.35878459 210.33276367 434.78662109 C192.35320486 434.32402524 180.97323885 418.31903892 168.99682617 406.40771484 C168.35211805 405.76708225 167.70740993 405.12644966 167.04316521 404.46640396 C163.64339267 401.0872724 160.24674743 397.70503257 156.85253906 394.3203125 C153.36888714 390.8477983 149.87368711 387.38714555 146.37591648 383.92886162 C143.6625118 381.2416623 140.95808882 378.54555663 138.25596428 375.8470192 C136.97123227 374.56712728 135.68315202 373.29058638 134.39154243 372.01763535 C117.73416143 355.58643331 117.73416143 355.58643331 117.0480957 345.30810547 C117.30513862 337.88082334 119.7584226 332.61140434 124.18041992 326.79052734 C142.8749531 300.75006255 151.03062787 270.8511603 146.43041992 238.79052734 C141.09759398 207.75996227 124.60287064 180.77833956 99.06152344 162.265625 C84.48942974 152.099048 66.78225822 144.702148 49.11791992 142.29052734 C48.34963867 142.18095703 47.58135742 142.07138672 46.78979492 141.95849609 C17.30073134 138.39127066 -12.20794314 146.22920738 -36.19458008 163.66552734 C-38.1095317 165.18338123 -40.00553395 166.72544116 -41.88208008 168.29052734 C-42.86563477 169.09876953 -43.84918945 169.90701172 -44.86254883 170.73974609 C-57.86124736 181.98958998 -66.98222712 195.63396755 -73.88208008 211.29052734 C-74.36290039 212.34369141 -74.8437207 213.39685547 -75.33911133 214.48193359 C-86.66390088 241.27139045 -85.871342 272.67064113 -75.36694336 299.56176758 C-70.85909813 310.46147786 -65.18090035 320.37025975 -58.11938477 329.8125 C-54.54189541 334.59806474 -53.65971894 337.91389085 -53.44458008 343.85302734 C-53.38399414 345.00931641 -53.3234082 346.16560547 -53.26098633 347.35693359 C-55.20321807 359.65773465 -66.42799601 368.40459836 -74.84301758 376.74755859 C-76.3180912 378.22278745 -77.79249604 379.69868531 -79.26626587 381.17521667 C-82.34479312 384.25512251 -85.43012485 387.32798943 -88.52075195 390.39575195 C-92.46887153 394.31545167 -96.40119205 398.25056256 -100.32875633 402.19084644 C-103.36699023 405.23605519 -106.41258075 408.27381864 -109.46049881 411.30933189 C-110.91292362 412.75726245 -112.36329355 414.20725748 -113.81150436 415.65940285 C-115.83996978 417.69079913 -117.87794633 419.71216072 -119.91870117 421.73120117 C-120.50701218 422.32401382 -121.09532318 422.91682648 -121.70146179 423.52760315 C-128.0751374 429.78975829 -134.38306911 434.27916857 -143.50708008 434.66552734 C-154.01370013 434.42825503 -161.23355764 427.7641486 -168.25708008 420.60302734 C-169.03696289 419.85085938 -169.8168457 419.09869141 -170.62036133 418.32373047 C-176.52985154 412.38898602 -180.83245847 405.86740454 -181.38208008 397.29052734 C-180.72344379 386.89100699 -173.67360098 377.61865619 -168.31958008 369.04052734 C-167.16235037 367.17366879 -166.00741433 365.30544018 -164.85499573 363.43560791 C-163.81421873 361.74883686 -162.7671652 360.06594324 -161.71972656 358.38330078 C-158.07391846 353.08884557 -158.07391846 353.08884557 -157.22827148 347.06811523 C-157.56004395 346.38998779 -157.89181641 345.71186035 -158.23364258 345.01318359 C-158.59071289 344.25199219 -158.9477832 343.49080078 -159.31567383 342.70654297 C-159.70883789 341.92988281 -160.10200195 341.15322266 -160.50708008 340.35302734 C-161.24944782 338.80233237 -161.99163778 337.25155227 -162.73364258 335.70068359 C-163.07218262 335.02142822 -163.41072266 334.34217285 -163.75952148 333.64233398 C-164.88208008 331.29052734 -164.88208008 331.29052734 -165.92333984 327.69921875 C-168.02603777 324.04000543 -168.31812146 323.7441663 -172.07470703 322.54956055 C-173.83295356 322.11738909 -175.59906885 321.71644322 -177.37036133 321.34130859 C-178.7742939 321.00416084 -178.7742939 321.00416084 -180.20658875 320.66020203 C-183.19680299 319.9463977 -186.19420041 319.27269264 -189.19458008 318.60302734 C-192.18238842 317.91672032 -195.1677416 317.2219229 -198.1504364 316.51371765 C-200.0047482 316.07544386 -201.86230525 315.65061517 -203.72322083 315.24128723 C-211.91829396 313.34044546 -216.88193761 310.09627681 -221.88208008 303.29052734 C-224.08289751 299.0011742 -224.17834956 294.95410333 -224.17260742 290.23071289 C-224.18268326 289.03457367 -224.18268326 289.03457367 -224.19296265 287.81427002 C-224.21191763 285.18519816 -224.2158657 282.55638198 -224.21801758 279.92724609 C-224.22444772 278.09267574 -224.23117624 276.25810642 -224.2381897 274.42353821 C-224.25015655 270.57945377 -224.25387118 266.73545916 -224.25268555 262.89135742 C-224.2524825 257.97869478 -224.27977226 253.06661157 -224.31422997 248.15408611 C-224.33652855 244.36468387 -224.34052217 240.57542036 -224.33946609 236.78595924 C-224.34181807 234.97555357 -224.35061878 233.16514383 -224.36613083 231.35480309 C-224.38584919 228.81563793 -224.37993028 226.27771288 -224.36791992 223.73852539 C-224.38477844 222.62928459 -224.38477844 222.62928459 -224.40197754 221.49763489 C-224.31883924 214.53906925 -221.80326809 209.02002964 -216.94458008 204.04052734 C-209.99936239 198.59537442 -200.26653366 197.30023095 -191.78833008 195.57177734 C-189.69309385 195.12686215 -187.59851471 194.67898108 -185.50415039 194.22998047 C-184.07845064 193.93473662 -182.64917394 193.65630998 -181.21704102 193.39404297 C-172.47744456 191.98152305 -172.47744456 191.98152305 -165.94677734 186.56201172 C-164.70330432 183.50422115 -163.7854792 180.46224961 -162.88208008 177.29052734 C-161.77416992 175.32763672 -161.77416992 175.32763672 -160.65942383 173.75927734 C-158.38984511 170.09711211 -157.31576675 167.60613493 -156.88208008 163.29052734 C-159.02577272 156.80375143 -163.27910951 151.22750192 -167.19458008 145.703125 C-169.61271162 142.24595256 -171.78483467 138.6624404 -173.94458008 135.04052734 C-174.63680664 133.92162109 -175.3290332 132.80271484 -176.04223633 131.64990234 C-179.88731771 124.62915927 -182.31899757 118.12759683 -180.34448242 110.10668945 C-177.76346741 102.65085396 -173.12277272 97.60661445 -167.56542969 92.19165039 C-166.06092157 90.71955538 -164.59147388 89.21773689 -163.12231445 87.71044922 C-162.1626455 86.75474175 -161.20111875 85.80089537 -160.23754883 84.84912109 C-159.37798584 83.99632568 -158.51842285 83.14353027 -157.6328125 82.26489258 C-154.29659745 79.87029143 -151.95506061 79.45254285 -147.88208008 79.29052734 C-144.93452276 80.63615134 -143.33930736 81.37607279 -141.88208008 84.29052734 C-141.31295638 87.27842677 -141.28218486 89.34908594 -142.95239258 91.97021484 C-145.90430583 95.42647509 -149.15413089 98.55889911 -152.42895508 101.70458984 C-153.37134033 102.62014648 -153.37134033 102.62014648 -154.33276367 103.55419922 C-155.59937334 104.7793492 -156.87816113 105.99205293 -158.16967773 107.19091797 C-158.76312988 107.76261719 -159.35658203 108.33431641 -159.96801758 108.92333984 C-160.50475098 109.42752441 -161.04148438 109.93170898 -161.59448242 110.45117188 C-163.46494593 113.12316128 -163.7754866 115.03309029 -163.88208008 118.29052734 C-162.57082689 121.5910086 -162.57082689 121.5910086 -160.47192383 124.86865234 C-159.92514732 125.78587067 -159.92514732 125.78587067 -159.36732483 126.72161865 C-158.20026003 128.67110873 -157.01061472 130.60560912 -155.81958008 132.54052734 C-155.04525189 133.82475526 -154.27245029 135.10990495 -153.5012207 136.39599609 C-151.31174287 140.03790675 -149.09997435 143.66587098 -146.88208008 147.29052734 C-145.71379695 149.20020326 -144.54803675 151.11142739 -143.38598633 153.02490234 C-142.68904663 154.16523926 -142.68904663 154.16523926 -141.97802734 155.32861328 C-139.79108829 159.24357033 -139.22247662 162.90553041 -139.88208008 167.29052734 C-141.21761067 171.35809547 -142.91223362 175.24756253 -144.63208008 179.16552734 C-145.07551758 180.20322266 -145.51895508 181.24091797 -145.97583008 182.31005859 C-146.85180904 184.35315069 -147.73767961 186.39203388 -148.6340332 188.42626953 C-149.42578683 190.24333792 -150.19324399 192.07134521 -150.92700195 193.91259766 C-152.8367968 198.60638923 -154.28009207 201.75913472 -158.88208008 204.29052734 C-162.84881136 205.66519826 -166.87430203 206.70723396 -170.94458008 207.72802734 C-172.09313477 208.02733154 -173.24168945 208.32663574 -174.42504883 208.63500977 C-179.92988052 210.06194819 -185.44728727 211.43470718 -190.97192383 212.78271484 C-191.89030029 213.00773682 -192.80867676 213.23275879 -193.75488281 213.46459961 C-195.47250961 213.88199521 -197.19203567 214.29167068 -198.91357422 214.69262695 C-203.32335888 215.66418479 -203.32335888 215.66418479 -206.88208008 218.29052734 C-208.14910866 221.79937882 -208.01561483 225.30127895 -208.02734375 228.99926758 C-208.03070236 229.66481659 -208.03406097 230.3303656 -208.03752136 231.01608276 C-208.04699992 233.21044799 -208.04897282 235.40473668 -208.05004883 237.59912109 C-208.05326325 239.12842337 -208.05662746 240.65772534 -208.06013489 242.18702698 C-208.06611818 245.39056104 -208.06797558 248.59406816 -208.06738281 251.79760742 C-208.06728116 255.89769983 -208.08093967 259.99761917 -208.09815502 264.09767056 C-208.10928543 267.25556733 -208.11130171 270.41342237 -208.11077309 273.57133675 C-208.11195139 275.08277038 -208.11636477 276.59420516 -208.12410545 278.10561943 C-208.13392772 280.22133316 -208.13101882 282.33667253 -208.125 284.45239258 C-208.12642502 285.65500229 -208.12785004 286.857612 -208.12931824 288.09666443 C-207.88053868 291.31043933 -207.44256534 293.47613778 -205.88208008 296.29052734 C-200.39700148 298.86218781 -194.6212581 300.22280354 -188.74536133 301.63037109 C-187.01672799 302.05762949 -185.28821582 302.48537836 -183.55981445 302.91357422 C-180.86864424 303.57498228 -178.17667001 304.23234001 -175.48242188 304.88110352 C-172.85874934 305.5151597 -170.23948502 306.16531677 -167.62036133 306.81787109 C-166.8181868 307.00655258 -166.01601227 307.19523407 -165.18952942 307.38963318 C-159.8883448 308.72595718 -155.69344426 310.31986006 -152.70336914 315.22363281 C-152.4375 315.90312988 -152.17163086 316.58262695 -151.89770508 317.28271484 C-151.57737305 318.07000977 -151.25704102 318.85730469 -150.92700195 319.66845703 C-150.58217773 320.53374023 -150.23735352 321.39902344 -149.88208008 322.29052734 C-149.0268491 324.25327574 -148.16725166 326.21412564 -147.30395508 328.17333984 C-146.41207052 330.25352942 -145.52146334 332.33426711 -144.63208008 334.41552734 C-144.17317383 335.46095703 -143.71426758 336.50638672 -143.24145508 337.58349609 C-142.80833008 338.60314453 -142.37520508 339.62279297 -141.92895508 340.67333984 C-141.53546875 341.58486816 -141.14198242 342.49639648 -140.73657227 343.43554688 C-138.85697093 349.71556346 -139.83510788 354.11338211 -142.81958008 359.82177734 C-143.28666382 360.71938782 -143.28666382 360.71938782 -143.76318359 361.63513184 C-147.78209839 369.21341714 -152.4285461 376.44184721 -157.07885742 383.64404297 C-158.23691283 385.4440897 -159.37320096 387.25643561 -160.50708008 389.07177734 C-161.1799707 390.12429688 -161.85286133 391.17681641 -162.54614258 392.26123047 C-164.14652021 395.89015694 -164.07463429 397.54107783 -162.88208008 401.29052734 C-160.88526485 404.24687413 -158.30333888 406.61265017 -155.75708008 409.10302734 C-155.10481445 409.78300781 -154.45254883 410.46298828 -153.78051758 411.16357422 C-153.13083008 411.81003906 -152.48114258 412.45650391 -151.81176758 413.12255859 C-151.22637207 413.70755127 -150.64097656 414.29254395 -150.0378418 414.89526367 C-146.8484378 416.95952685 -144.69274193 417.26633373 -140.88208008 417.29052734 C-138.05068548 415.6545202 -135.92792361 413.40941412 -133.66162109 411.07348633 C-132.97784897 410.40052017 -132.29407684 409.72755402 -131.58958435 409.03419495 C-129.33477127 406.80439629 -127.11026674 404.54684729 -124.88598633 402.28662109 C-123.32788799 400.72883264 -121.76845599 399.17237707 -120.20774841 397.61720276 C-116.94121625 394.35344034 -113.68908083 391.07615877 -110.44677734 387.78833008 C-106.28837349 383.57315551 -102.09957685 379.38983215 -97.89999485 375.21572781 C-94.67597837 372.00561676 -91.46686344 368.7809417 -88.2622509 365.5514698 C-86.72299343 364.00317533 -85.17952869 362.45905195 -83.63183784 360.91918755 C-81.47173165 358.76489806 -79.33202425 356.59222436 -77.19677734 354.41333008 C-76.55322296 353.77877899 -75.90966858 353.14422791 -75.24661255 352.490448 C-71.7001859 348.83487926 -71.7001859 348.83487926 -70.42649841 343.97532654 C-70.90821031 341.13653866 -71.54304741 339.64191568 -73.22583008 337.32958984 C-73.72646973 336.61939697 -74.22710937 335.9092041 -74.74291992 335.17749023 C-75.28384277 334.43104248 -75.82476562 333.68459473 -76.38208008 332.91552734 C-86.08397176 318.89676511 -92.53459128 304.78841875 -96.88208008 288.29052734 C-97.0614209 287.62037598 -97.24076172 286.95022461 -97.42553711 286.25976562 C-102.2825768 267.15476642 -102.12301388 244.31089616 -96.88208008 225.29052734 C-96.55143555 224.08638184 -96.55143555 224.08638184 -96.21411133 222.85791016 C-86.29913311 188.06368104 -64.36163246 159.28914559 -32.93530273 141.16796875 C-0.83667176 123.35334975 35.90610714 120.13067626 71.12573242 129.75146484 C90.33538124 135.40925431 107.47258451 145.78416812 122.11791992 159.29052734 C123.0640918 160.15419922 124.01026367 161.01787109 124.98510742 161.90771484 C145.70257888 181.68615077 158.11563211 207.30331365 163.11791992 235.29052734 C163.40602539 236.85867187 163.40602539 236.85867187 163.69995117 238.45849609 C167.6527289 274.69844891 159.07178664 309.58387307 136.73510742 338.52880859 C134.72892699 341.95482204 134.52277535 343.36177446 135.11791992 347.29052734 C136.9028805 349.97905578 139.14078262 352.15355817 141.43261719 354.41333008 C142.10412308 355.09856247 142.77562897 355.78379486 143.46748352 356.48979187 C145.69125865 358.75016662 147.93650915 360.98767094 150.18432617 363.22412109 C151.73771123 364.7866261 153.29034923 366.34987413 154.8422699 367.91383362 C158.09838993 371.18782777 161.36563859 374.45020426 164.640625 377.70532227 C168.83900369 381.88070729 173.00481742 386.08697231 177.16240025 390.30293179 C180.36112198 393.53831998 183.57823166 396.75491416 186.80103874 399.96629524 C188.34498686 401.50993629 189.88272389 403.0598154 191.41409492 404.61593437 C193.55659788 406.78815113 195.72296846 408.93335837 197.89746094 411.07348633 C198.5268457 411.72220703 199.15623047 412.37092773 199.8046875 413.03930664 C203.08090914 416.20788348 204.20665369 417.29631291 208.9344635 417.26629639 C212.15100388 416.2803867 213.69663296 415.47191527 216.04760742 413.12255859 C216.69729492 412.47609375 217.34698242 411.82962891 218.01635742 411.16357422 C218.66862305 410.48359375 219.32088867 409.80361328 219.99291992 409.10302734 C220.66838867 408.44238281 221.34385742 407.78173828 222.03979492 407.10107422 C225.80240342 403.27424449 228.01049426 400.90010763 228.11791992 395.29052734 C226.93693586 392.65645336 225.76665512 390.46692257 224.23510742 388.05615234 C223.82382599 387.37808533 223.41254456 386.70001831 222.98880005 386.00140381 C221.67248171 383.83773331 220.33389687 381.68898465 218.99291992 379.54052734 C202.91705641 353.41872997 202.91705641 353.41872997 204.11791992 346.29052734 C205.48766457 342.23374533 207.14760895 338.33455038 208.86791992 334.41552734 C209.31135742 333.37783203 209.75479492 332.34013672 210.21166992 331.27099609 C211.08764888 329.227904 211.97351945 327.18902081 212.86987305 325.15478516 C213.66162668 323.33771677 214.42908384 321.50970948 215.1628418 319.66845703 C215.48317383 318.88116211 215.80350586 318.09386719 216.13354492 317.28271484 C216.53234863 316.26346924 216.53234863 316.26346924 216.93920898 315.22363281 C220.19761654 309.87979043 224.90588585 308.52536826 230.64653015 307.05905151 C231.62064346 306.82348541 232.59475677 306.58791931 233.59838867 306.34521484 C234.60758865 306.08926544 235.61678864 305.83331604 236.65657043 305.5696106 C239.86995307 304.75614283 243.08721337 303.95967711 246.30541992 303.16552734 C249.53376139 302.36222322 252.76105058 301.55524049 255.98640442 300.74002075 C257.99112485 300.233953 259.99768199 299.73509652 262.00614929 299.24411011 C262.91081436 299.01692291 263.81547943 298.78973572 264.74755859 298.55566406 C265.54522141 298.35899139 266.34288422 298.16231873 267.16471863 297.95968628 C269.3205578 297.38106464 269.3205578 297.38106464 271.11791992 295.29052734 C272.3849485 291.78167587 272.25145467 288.27977573 272.26318359 284.58178711 C272.26654221 283.9162381 272.26990082 283.25068909 272.27336121 282.56497192 C272.28283976 280.37060669 272.28481267 278.17631801 272.28588867 275.98193359 C272.28910309 274.45263132 272.29246731 272.92332934 272.29597473 271.39402771 C272.30195803 268.19049364 272.30381542 264.98698653 272.30322266 261.78344727 C272.30312101 257.68335486 272.31677951 253.58343552 272.33399487 249.48338413 C272.34512527 246.32548736 272.34714155 243.16763232 272.34661293 240.00971794 C272.34779123 238.49828431 272.35220461 236.98684953 272.3599453 235.47543526 C272.36976756 233.35972153 272.36685867 231.24438215 272.36083984 229.12866211 C272.36297737 227.32474754 272.36297737 227.32474754 272.36515808 225.48439026 C272.11629434 222.26952779 271.68129089 220.10475286 270.11791992 217.29052734 C264.83718825 214.82757173 259.32834937 213.47148917 253.67260742 212.13427734 C252.085342 211.74766465 250.4981032 211.36094265 248.91088867 210.97412109 C246.44514392 210.37945016 243.97885385 209.78716378 241.51196289 209.19726562 C239.10564188 208.6199205 236.70159 208.03377117 234.29760742 207.44677734 C233.20051956 207.18882385 233.20051956 207.18882385 232.08126831 206.92565918 C225.35794302 205.27717263 220.03126191 203.3130082 216.11791992 197.29052734 C215.05833005 194.8079804 214.11693482 192.39665058 213.24291992 189.85302734 C210.88375974 183.22181234 208.20340445 176.84747251 205.21948242 170.47412109 C203.10314381 164.35775242 203.80578973 160.4836378 206.56713867 154.75146484 C210.69941385 146.9580643 215.40581749 139.50436244 220.10888672 132.046875 C221.25198563 130.22964084 222.38282885 128.40522207 223.51245117 126.57958984 C224.18123291 125.51434082 224.85001465 124.4490918 225.5390625 123.3515625 C227.80155465 119.04239463 227.80155465 119.04239463 228.11791992 114.29052734 C226.16662479 111.2590459 223.6611358 108.82978433 221.11791992 106.29052734 C219.98459229 105.10609543 219.98459229 105.10609543 218.82836914 103.8977356 C213.34711143 98.17881097 207.75468774 92.56641806 202.17553711 86.94311523 C200.12883812 84.87850006 198.09103109 82.80566544 196.06030273 80.7253418 C193.58866725 78.19346887 191.10257672 75.67668089 188.60549927 73.16990471 C187.2070218 71.75877612 185.82331152 70.33306162 184.43994141 68.90711975 C179.53844335 64.00671927 179.53844335 64.00671927 173.40625 60.98730469 C169.31396969 61.364661 166.94995896 62.56303034 163.44213867 64.70068359 C162.83207474 65.06520126 162.2220108 65.42971893 161.59346008 65.80528259 C159.65286768 66.97035077 157.72943231 68.1608212 155.80541992 69.35302734 C154.52587654 70.12756032 153.24528419 70.90036317 151.96362305 71.67138672 C150.70626638 72.43082925 149.44910288 73.19059168 148.19213867 73.95068359 C147.57603729 74.32303131 146.95993591 74.69537903 146.32516479 75.07901001 C143.62309761 76.72268029 140.9648082 78.39584415 138.35864258 80.18847656 C132.24848709 84.29451071 127.44581473 85.58626024 120.11791992 84.29052734 C115.89739709 83.02499085 111.94275989 81.3520594 107.93041992 79.54052734 C106.90239258 79.09708984 105.87436523 78.65365234 104.81518555 78.19677734 C101.89962992 76.92833344 99.00874815 75.61412669 96.11791992 74.29052734 C95.33336426 73.95730469 94.54880859 73.62408203 93.74047852 73.28076172 C93.04390137 72.96945313 92.34732422 72.65814453 91.62963867 72.33740234 C91.04013428 72.08313477 90.45062988 71.82886719 89.84326172 71.56689453 C84.18854552 67.38366879 82.9535959 60.89134913 81.46166992 54.43896484 C80.99167157 52.5170767 80.52161784 50.59520211 80.05151367 48.67333984 C79.33024675 45.6612504 78.61378284 42.64806778 77.8996582 39.63427734 C77.20286705 36.71203512 76.48918642 33.79429186 75.77416992 30.87646484 C75.56675171 29.9753598 75.3593335 29.07425476 75.14562988 28.14584351 C74.9386145 27.30461945 74.73159912 26.46339539 74.51831055 25.59667969 C74.25661072 24.49131363 74.25661072 24.49131363 73.98962402 23.36361694 C72.79529997 20.5232715 71.59632106 19.14106472 69.11791992 17.29052734 C65.75935383 16.68346435 65.75935383 16.68346435 61.93432617 16.77294922 C61.21840302 16.76593994 60.50247986 16.75893066 59.76486206 16.75170898 C57.40298449 16.73413187 55.04230926 16.74574959 52.68041992 16.75927734 C51.03661876 16.75658232 49.39281915 16.75269981 47.74902344 16.74768066 C44.30575364 16.74178604 40.86289921 16.75034706 37.41967773 16.76904297 C33.00758299 16.79183292 28.5964615 16.77870959 24.18440247 16.75475311 C20.79057491 16.74029391 17.39697783 16.74490159 14.00314331 16.75526428 C12.3764535 16.75793125 10.74974271 16.75466282 9.12307739 16.74534607 C6.84865964 16.73517792 4.57581438 16.75068258 2.30151367 16.77294922 C0.36103149 16.77772278 0.36103149 16.77772278 -1.61865234 16.78259277 C-5.4652445 17.38129368 -6.60602031 18.183476 -8.88208008 21.29052734 C-9.81568043 23.35144774 -9.81568043 23.35144774 -10.2824707 25.59667969 C-10.48948608 26.43790375 -10.69650146 27.27912781 -10.90979004 28.14584351 C-11.11720825 29.04694855 -11.32462646 29.94805359 -11.53833008 30.87646484 C-11.88184509 32.27827499 -11.88184509 32.27827499 -12.2322998 33.70840454 C-12.96237931 36.69103505 -13.67408007 39.67758443 -14.38208008 42.66552734 C-15.09084676 45.64610567 -15.80391568 48.62527064 -16.53186035 51.60122681 C-16.984102 53.45050535 -17.4254932 55.30248167 -17.85437012 57.15731812 C-19.23290692 62.80109713 -20.76271475 68.01012871 -25.68212891 71.60644531 C-26.59514771 72.00307373 -26.59514771 72.00307373 -27.52661133 72.40771484 C-28.22222168 72.7193457 -28.91783203 73.03097656 -29.63452148 73.35205078 C-30.37621582 73.66174805 -31.11791016 73.97144531 -31.88208008 74.29052734 C-32.65600098 74.62858398 -33.42992187 74.96664062 -34.22729492 75.31494141 C-36.66604296 76.37046743 -39.11532246 77.39663271 -41.56958008 78.41552734 C-42.81191406 78.93566406 -42.81191406 78.93566406 -44.0793457 79.46630859 C-46.34478425 80.41311317 -48.61107475 81.35715405 -50.88208008 82.29052734 C-51.69596191 82.64469727 -52.50984375 82.99886719 -53.34838867 83.36376953 C-59.27100655 85.5301077 -64.54205847 85.31248378 -70.32788086 82.78564453 C-74.14095482 80.75402118 -77.79036294 78.4668023 -81.44458008 76.16552734 C-82.70558794 75.39506468 -83.96795349 74.62681958 -85.23168945 73.86083984 C-89.8046502 71.07912567 -94.34880583 68.25237877 -98.88305664 65.40795898 C-99.76574219 64.86260498 -100.64842773 64.31725098 -101.55786133 63.75537109 C-102.31365479 63.28220459 -103.06944824 62.80903809 -103.84814453 62.3215332 C-106.04431671 61.04899343 -106.04431671 61.04899343 -109.50708008 60.97802734 C-113.54309116 62.54758721 -115.84266088 64.82130763 -118.96801758 67.74755859 C-120.88208008 69.29052734 -120.88208008 69.29052734 -124.06958008 70.04052734 C-127.9476574 69.00637339 -129.5084155 67.50195589 -131.88208008 64.29052734 C-132.63208008 61.47802734 -132.63208008 61.47802734 -131.88208008 58.29052734 C-128.16074285 52.74671704 -122.51785493 46.80325388 -116.02661133 44.68505859 C-113.4166866 44.20490851 -110.910833 44.00655317 -108.25708008 43.91552734 C-107.29543945 43.86654297 -106.33379883 43.81755859 -105.34301758 43.76708984 C-94.62239154 45.38849378 -84.69916778 53.57374621 -75.59741211 59.2265625 C-73.74966665 60.37207916 -71.89810783 61.51122484 -70.04614258 62.64990234 C-68.95769043 63.32504883 -67.86923828 64.00019531 -66.74780273 64.69580078 C-63.4735546 66.56487578 -63.4735546 66.56487578 -59.88208008 67.29052734 C-57.37703875 66.60874513 -57.37703875 66.60874513 -54.78442383 65.41943359 C-53.81827148 65.01015625 -52.85211914 64.60087891 -51.85668945 64.17919922 C-50.85444336 63.7415625 -49.85219727 63.30392578 -48.81958008 62.85302734 C-46.83067927 61.9955448 -44.83987145 61.14246809 -42.84692383 60.29443359 C-41.96641357 59.91101807 -41.08590332 59.52760254 -40.17871094 59.13256836 C-37.88208008 58.29052734 -37.88208008 58.29052734 -34.88208008 58.29052734 C-34.78193604 57.60700195 -34.68179199 56.92347656 -34.57861328 56.21923828 C-33.33461252 48.22635116 -31.59194261 40.40955558 -29.58789062 32.58007812 C-29.06748546 30.53228502 -28.56753696 28.48012521 -28.06762695 26.42724609 C-25.53399853 16.31489621 -22.63733723 8.36560373 -13.88208008 2.29052734 C-9.2301154 0.36916259 -4.97177842 -0.00632595 0 0 Z " fill="#000000" transform="translate(223.882080078125,14.70947265625)"/>
<path d="M0 0 C1.35677101 -0.01429802 1.35677101 -0.01429802 2.74095154 -0.02888489 C3.71081497 -0.02797348 4.68067841 -0.02706207 5.67993164 -0.02612305 C6.68343155 -0.03040817 7.68693146 -0.0346933 8.72084045 -0.03910828 C10.84155524 -0.04484715 12.9622897 -0.0453551 15.08300781 -0.04101562 C18.32464234 -0.03785685 21.56536312 -0.06131669 24.80688477 -0.08666992 C26.86873257 -0.08894309 28.93058283 -0.08964633 30.99243164 -0.08862305 C31.96027084 -0.09783279 32.92811005 -0.10704254 33.92527771 -0.11653137 C38.8920615 -0.08244719 42.39685441 -0.01083133 46.40258789 3.2746582 C50.14509465 7.6737451 49.91945342 12.26806211 49.90258789 17.7746582 C49.93094727 18.61641602 49.95930664 19.45817383 49.98852539 20.32543945 C50.0025596 24.78129972 49.84959969 26.69205283 47.05883789 30.3293457 C44.40258789 32.2746582 44.40258789 32.2746582 41.40258789 32.8996582 C37.14470774 32.01259984 35.8252362 30.90863067 33.40258789 27.2746582 C33.40258789 23.6446582 33.40258789 20.0146582 33.40258789 16.2746582 C23.50258789 16.2746582 13.60258789 16.2746582 3.40258789 16.2746582 C3.41829834 19.29759033 3.43400879 22.32052246 3.45019531 25.43505859 C3.49993298 35.4294293 3.53305363 45.42380551 3.55802441 55.41826725 C3.57367171 61.47715369 3.59489322 67.53591318 3.62890625 73.59472656 C3.66153258 79.44320865 3.67944795 85.29156873 3.68721962 91.14013481 C3.69275721 93.37002927 3.70357076 95.59991716 3.71977806 97.8297596 C3.74159545 100.95615123 3.74455296 104.08204042 3.74316406 107.20849609 C3.75394989 108.12775375 3.76473572 109.04701141 3.77584839 109.99412537 C3.74937349 115.51157208 3.08782025 119.4135965 0.40258789 124.2746582 C-3.78281778 127.12834389 -7.64781384 127.62956838 -12.59741211 128.2746582 C-0.53252629 149.02230344 -0.53252629 149.02230344 11.84008789 169.5871582 C12.64482544 170.91880005 12.64482544 170.91880005 13.46582031 172.27734375 C13.95928955 173.07696533 14.45275879 173.87658691 14.96118164 174.70043945 C15.38713623 175.39564697 15.81309082 176.09085449 16.25195312 176.80712891 C16.6316626 177.29141357 17.01137207 177.77569824 17.40258789 178.2746582 C18.06258789 178.2746582 18.72258789 178.2746582 19.40258789 178.2746582 C21.10428024 175.83237888 21.10428024 175.83237888 22.85961914 172.66918945 C23.19934753 172.08160858 23.53907593 171.49402771 23.88909912 170.88864136 C24.62207994 169.61965298 25.35180264 168.34877838 26.0786438 167.07626343 C27.97863232 163.75073503 29.90215229 160.43887998 31.82446289 157.1262207 C32.20965591 156.46122055 32.59484894 155.7962204 32.99171448 155.11106873 C38.25889343 146.0413071 43.81649011 137.15069145 49.40258789 128.2746582 C48.71624268 128.15276123 48.02989746 128.03086426 47.32275391 127.90527344 C46.42226318 127.73713135 45.52177246 127.56898926 44.59399414 127.39575195 C43.70139893 127.23260498 42.80880371 127.06945801 41.88916016 126.90136719 C38.62112415 126.07770018 36.69806784 124.71823364 34.40258789 122.2746582 C33.32438756 119.0400572 33.24960183 116.63382053 33.2097168 113.23022461 C33.19365387 111.98528229 33.17759094 110.74033997 33.16104126 109.45767212 C33.14955513 108.09719527 33.13894636 106.73671077 33.12915039 105.3762207 C33.12382671 104.69016125 33.11850304 104.00410179 33.11301804 103.29725266 C33.08632137 99.6670112 33.06693402 96.03680374 33.05249023 92.40649414 C33.03914287 89.40520809 33.01127275 86.40460067 32.97045898 83.40356445 C32.92112295 79.77550974 32.8963689 76.14807111 32.88926315 72.51969528 C32.88255534 71.13938034 32.86734504 69.7590789 32.84337234 68.37895584 C32.8116998 66.44550665 32.81468729 64.51158444 32.8190918 62.57788086 C32.81100494 61.4788443 32.80291809 60.37980774 32.79458618 59.24746704 C33.60509159 55.28452154 35.30173972 53.78374336 38.40258789 51.2746582 C41.40258789 50.6496582 41.40258789 50.6496582 44.40258789 51.2746582 C46.9170668 52.93703767 47.97311598 53.71632717 49.40258789 56.2746582 C50.10696869 60.44952583 49.98344523 64.57100372 49.89086914 68.79418945 C49.8837944 70.00789719 49.87671967 71.22160492 49.86943054 72.47209167 C49.84146678 76.34441032 49.7787188 80.21527737 49.71508789 84.0871582 C49.69000785 86.71409043 49.66719418 89.34104535 49.64672852 91.96801758 C49.59163319 98.40405881 49.50798444 104.8392548 49.40258789 111.2746582 C50.43971924 111.25290527 51.47685059 111.23115234 52.54541016 111.20874023 C53.91576514 111.19114903 55.28612699 111.17408697 56.65649414 111.1574707 C57.33893188 111.14176025 58.02136963 111.1260498 58.7244873 111.10986328 C65.32962918 111.0497619 65.32962918 111.0497619 68.34008789 113.1496582 C71.31484093 117.65685978 71.42992333 120.99933523 70.40258789 126.2746582 C68.03977277 131.51647617 65.02678779 136.29294107 61.96508789 141.1496582 C61.09996162 142.55763773 60.23695287 143.96692037 59.37597656 145.37744141 C57.60767562 148.26745194 55.82767835 151.14970611 54.03735352 154.02612305 C51.53900945 158.04458664 49.08065589 162.08606216 46.63696289 166.13793945 C45.88364816 167.38616228 45.13031197 168.63437216 44.37695312 169.88256836 C44.01544159 170.48159973 43.65393005 171.0806311 43.28146362 171.69781494 C40.97833272 175.50839817 38.66139406 179.31039999 36.33081055 183.10424805 C34.96856042 185.3440784 33.63160845 187.58953552 32.31420898 189.85522461 C31.79052986 190.74133171 31.79052986 190.74133171 31.25627136 191.64533997 C30.28546833 193.2886414 29.3254832 194.93831986 28.36621094 196.58837891 C26.259046 199.47102665 24.61358832 200.76589013 21.40258789 202.2746582 C17.28524992 202.87354373 15.21519041 202.78427607 11.66821289 200.55981445 C7.19271097 196.61881493 4.54737552 191.235133 1.65548706 186.10253906 C-0.18148317 182.84312844 -2.05712333 179.60595328 -3.92553711 176.36450195 C-4.30899796 175.69655609 -4.6924588 175.02861023 -5.08753967 174.34042358 C-9.16541228 167.24965244 -13.40025379 160.25724973 -17.65991211 153.2746582 C-18.67565308 151.60584595 -18.67565308 151.60584595 -19.71191406 149.90332031 C-20.36635498 148.82961182 -21.0207959 147.75590332 -21.69506836 146.6496582 C-22.64905518 145.08356812 -22.64905518 145.08356812 -23.62231445 143.48583984 C-25.00982316 141.22998051 -26.40879529 138.9856943 -27.82641602 136.74902344 C-28.19254501 136.16689087 -28.55867401 135.5847583 -28.93589783 134.98498535 C-29.95401743 133.36819789 -30.97899002 131.75573173 -32.00439453 130.14355469 C-34.16818371 126.24674447 -35.32253049 122.72384137 -34.59741211 118.2746582 C-31.80223139 112.87706784 -31.80223139 112.87706784 -28.59741211 111.2746582 C-25.87981103 111.20283999 -23.18881823 111.18166314 -20.47241211 111.2121582 C-19.71831055 111.21666992 -18.96420898 111.22118164 -18.18725586 111.22583008 C-16.32394084 111.23762321 -14.46066656 111.25555878 -12.59741211 111.2746582 C-12.60629456 109.98284134 -12.615177 108.69102448 -12.62432861 107.36006165 C-12.70538278 95.19141591 -12.76536246 83.02282487 -12.8046608 70.85397053 C-12.82554362 64.59768239 -12.85387459 58.34161202 -12.89916992 52.08544922 C-12.94260192 46.04893539 -12.96654398 40.01263114 -12.97692108 33.97597313 C-12.98431713 31.67184334 -12.9987597 29.36772513 -13.02033234 27.06368446 C-13.04933033 23.83859002 -13.05336951 20.6143638 -13.05151367 17.38916016 C-13.06589478 16.43465973 -13.08027588 15.4801593 -13.09509277 14.49673462 C-13.06909124 10.32627446 -12.97632155 7.91537563 -10.81903076 4.26750183 C-7.25630913 1.07165762 -4.7737813 0.02772829 0 0 Z " fill="#000000" transform="translate(276.597412109375,294.725341796875)"/>
<path d="M0 0 C3.55856978 3.15679577 6.10266668 6.4217164 8.5390625 10.48828125 C9.51963623 12.1134668 9.51963623 12.1134668 10.52001953 13.77148438 C11.2218832 14.95170192 11.9235376 16.13204392 12.625 17.3125 C13.36386408 18.54395385 14.10329689 19.77506663 14.84326172 21.00585938 C16.82404113 24.30578691 18.79472239 27.61162661 20.76220703 30.91949463 C22.01844202 33.03099768 23.2765627 35.14136691 24.53515625 37.25146484 C34.20975964 53.47520281 34.20975964 53.47520281 37.84780884 59.66789246 C39.56937843 62.59809536 41.31343606 65.5040528 43.10839844 68.390625 C43.75067383 69.43734375 44.39294922 70.4840625 45.0546875 71.5625 C45.62429199 72.47128906 46.19389648 73.38007813 46.78076172 74.31640625 C48.21687848 77.47735847 48.36118596 79.56258679 48 83 C44.84210526 88.57894737 44.84210526 88.57894737 42 90 C39.28239892 90.07181821 36.59140612 90.09299506 33.875 90.0625 C33.12089844 90.05798828 32.36679688 90.05347656 31.58984375 90.04882812 C29.72652873 90.03703499 27.86325445 90.01909942 26 90 C26.00888245 91.25201202 26.01776489 92.50402405 26.0269165 93.79397583 C26.10801183 105.59440466 26.16797013 117.39477693 26.20724869 129.19542122 C26.22812109 135.26223492 26.25643301 141.32882361 26.30175781 147.39550781 C26.34522702 153.25047898 26.36913972 159.10523376 26.37950897 164.96035385 C26.38689833 167.19388104 26.40132799 169.42739641 26.42292023 171.66083145 C26.45196775 174.78993552 26.45595534 177.91814603 26.45410156 181.04736328 C26.46848267 181.97021622 26.48286377 182.89306915 26.49768066 183.84388733 C26.4622879 189.36700611 25.81725806 192.69933165 22 197 C19.15953032 198.95884419 16.84493961 199.26309896 13.43432617 199.32226562 C12.53626755 199.34148071 11.63820892 199.3606958 10.7129364 199.38049316 C9.74934708 199.38899292 8.78575775 199.39749268 7.79296875 199.40625 C6.79421219 199.41765015 5.79545563 199.42905029 4.76643372 199.4407959 C2.65414656 199.45967428 0.54180079 199.47275531 -1.57055664 199.48046875 C-4.79092973 199.49987005 -8.00874226 199.56192034 -11.22851562 199.625 C-13.28383905 199.63806246 -15.33918069 199.64856247 -17.39453125 199.65625 C-18.35204788 199.6809436 -19.30956451 199.70563721 -20.2960968 199.7310791 C-26.21676326 199.69192052 -29.42321549 198.69409756 -33.74394226 194.58239746 C-36.40818186 191.22595465 -36.19401891 187.67244482 -36.25 183.5625 C-36.27578125 182.42941406 -36.3015625 181.29632813 -36.328125 180.12890625 C-35.96963996 176.71049534 -35.4490846 175.37026348 -33 173 C-29.57109774 172.12718851 -27.10740423 171.67077171 -23.6875 172.6875 C-21.59447043 174.31541189 -20.86012892 175.49129064 -20 178 C-20 179.65 -20 181.3 -20 183 C-10.1 183 -0.2 183 10 183 C9.98428955 180.03765381 9.9685791 177.07530762 9.95239258 174.02319336 C9.90265168 164.22839302 9.86953297 154.43358706 9.84456348 144.63869381 C9.82891715 138.70087431 9.80769742 132.76318439 9.77368164 126.82543945 C9.74105184 121.09366649 9.72313922 115.36201806 9.71536827 109.63015938 C9.7098313 107.4449219 9.69901896 105.25969113 9.68280983 103.07450676 C9.66098778 100.01037823 9.65803512 96.94676227 9.65942383 93.88256836 C9.648638 92.98201218 9.63785217 92.08145599 9.6267395 91.15361023 C9.65351313 85.68315928 10.33112015 81.81704499 13 77 C16.42094242 74.71937172 17.68187222 74.78074993 21.6875 74.875 C22.68136719 74.89304687 23.67523438 74.91109375 24.69921875 74.9296875 C25.45847656 74.95289063 26.21773438 74.97609375 27 75 C18.76132222 60.85959154 10.50856831 46.7302911 2 32.75 C1.11127197 31.28808228 1.11127197 31.28808228 0.20458984 29.79663086 C-2.10579242 25.67962211 -2.10579242 25.67962211 -5 22 C-5.51272461 22.86463867 -6.02544922 23.72927734 -6.55371094 24.62011719 C-16.32959808 41.10394756 -26.11370889 57.58204751 -36 74 C-35.31365479 74.04390869 -34.62730957 74.08781738 -33.92016602 74.13305664 C-32.56942993 74.23928345 -32.56942993 74.23928345 -31.19140625 74.34765625 C-30.29881104 74.41218994 -29.40621582 74.47672363 -28.48657227 74.54321289 C-24.80836706 75.21890478 -23.20233455 77.08723495 -21 80 C-19.60733346 82.78533307 -19.84960658 85.08988827 -19.82299805 88.20629883 C-19.80374519 90.16391899 -19.80374519 90.16391899 -19.78410339 92.16108704 C-19.77593587 93.59306459 -19.76849216 95.02504643 -19.76171875 96.45703125 C-19.75764322 97.17710546 -19.7535677 97.89717968 -19.74936867 98.63907433 C-19.72850691 102.4508676 -19.71420609 106.26262487 -19.70483398 110.07446289 C-19.69377339 114.00888839 -19.65937867 117.94274771 -19.61966228 121.87697315 C-19.59349729 124.90448548 -19.58514227 127.93186293 -19.58155251 130.95947838 C-19.57668562 132.4095409 -19.56506854 133.85959735 -19.54651451 135.30954933 C-19.52213203 137.34139989 -19.525507 139.37352576 -19.5300293 141.40551758 C-19.52416306 142.56086502 -19.51829681 143.71621246 -19.51225281 144.90657043 C-20.10363958 148.65731131 -21.36053787 150.32083226 -24 153 C-26 153.62890625 -26 153.62890625 -28 153.5625 C-28.66 153.56378906 -29.32 153.56507813 -30 153.56640625 C-32.91192169 152.74174093 -34.09788326 151.3299329 -36 149 C-36.48101807 146.27911377 -36.48101807 146.27911377 -36.45410156 143.12988281 C-36.45379944 141.94896057 -36.45349731 140.76803833 -36.45318604 139.55133057 C-36.43254089 138.28142273 -36.41189575 137.01151489 -36.390625 135.703125 C-36.38496521 134.39921814 -36.37930542 133.09531128 -36.37347412 131.75189209 C-36.35823338 128.29267477 -36.31896662 124.83413394 -36.2746582 121.37518311 C-36.23367087 117.84266307 -36.21545582 114.31003326 -36.1953125 110.77734375 C-36.15246968 103.85128538 -36.08423815 96.9256752 -36 90 C-37.09699219 90.05800781 -38.19398438 90.11601562 -39.32421875 90.17578125 C-40.77860314 90.22269688 -42.23303374 90.26819511 -43.6875 90.3125 C-44.40873047 90.35439453 -45.12996094 90.39628906 -45.87304688 90.43945312 C-49.99467954 90.53355433 -51.55985565 90.33132878 -54.97143555 87.76318359 C-57.64196297 84.1255582 -57.86611273 82.22794968 -57.62353516 77.82910156 C-56.34297828 72.01896333 -52.90186817 67.29061358 -49.6875 62.375 C-48.92123065 61.16684536 -48.15761532 59.95700385 -47.39648438 58.74560547 C-46.19427573 56.83230994 -44.99072022 54.92006239 -43.77926636 53.01260376 C-39.00776606 45.48941214 -34.5118945 37.80556971 -30 30.125 C-27.39636699 25.69290546 -24.78231019 21.26787771 -22.12646484 16.86682129 C-21.35299363 15.58499475 -20.58264956 14.30127763 -19.81494141 13.01599121 C-18.64123266 11.061201 -17.44853698 9.11933073 -16.25 7.1796875 C-15.72104126 6.29061203 -15.72104126 6.29061203 -15.18139648 5.38357544 C-11.25421798 -0.87073039 -7.01076627 -1.87788382 0 0 Z " fill="#000000" transform="translate(222,189)"/>
<path d="M0 0 C4.63002162 1.98172132 8.27417014 5.55675282 12.0078125 8.859375 C12.83667969 9.57867187 13.66554688 10.29796875 14.51953125 11.0390625 C42.30734354 35.55515435 42.30734354 35.55515435 43.4453125 45.796875 C43.34827187 49.0841264 43.11562544 49.72542559 40.9453125 52.421875 C37.05326824 54.3264924 35.18037742 53.92812162 31.0078125 52.859375 C28.86947973 51.02358107 27.26807029 49.43440016 25.5078125 47.296875 C25.03496826 46.75256836 24.56212402 46.20826172 24.07495117 45.64746094 C22.70346057 44.06412548 21.35427632 42.46399346 20.0078125 40.859375 C18.78183409 39.43994832 17.5531911 38.02281248 16.3203125 36.609375 C15.77503906 35.98417969 15.22976563 35.35898438 14.66796875 34.71484375 C9.10269031 28.49482667 3.05640347 23.12654154 -3.4765625 17.9375 C-9.7350098 12.76747831 -9.7350098 12.76747831 -10.55859375 9.859375 C-10.55110617 6.02573446 -10.40840817 4.37649766 -7.9296875 1.296875 C-5.01664289 -0.12865747 -3.20069879 -0.69279195 0 0 Z " fill="#000000" transform="translate(380.9921875,103.140625)"/>
<path d="M0 0 C1.9375 1.0625 1.9375 1.0625 3 3 C3.80002923 9.78254869 3.80002923 9.78254869 1.90600586 12.66479492 C0.34728579 14.25202027 -1.2729616 15.6604483 -3 17.0625 C-3.59578857 17.57780273 -4.19157715 18.09310547 -4.80541992 18.62402344 C-6.52095872 20.10292817 -8.25766316 21.55286766 -10 23 C-11.44113491 24.24580754 -12.87939871 25.49495939 -14.3125 26.75 C-14.92867187 27.28625 -15.54484375 27.8225 -16.1796875 28.375 C-22.38526115 33.91473957 -27.70410485 39.93212687 -32.82421875 46.484375 C-35.05254232 49.06074911 -37.18131678 51.08652188 -40 53 C-43.46758942 52.94021398 -45.88826749 52.60965977 -48.9375 50.9375 C-50.79299103 47.55395753 -50.94373567 44.64455815 -50 41 C-47.75385275 37.28761773 -44.92210529 34.19403623 -42 31 C-41.11126136 30.00454664 -40.22326092 29.00843381 -39.3359375 28.01171875 C-36.60186799 24.96458785 -33.808737 21.97847363 -31 19 C-30.25878906 18.20464844 -29.51757812 17.40929687 -28.75390625 16.58984375 C-10.65220412 -2.24256929 -10.65220412 -2.24256929 0 0 Z " fill="#000000" transform="translate(138,104)"/>
<path d="M0 0 C3.78449931 0.70959362 5.28809523 1.83732327 8 4.5625 C13.06457474 21.85043655 12.55569838 48.17778306 8 65.5625 C5.51414933 68.77273902 4.62873373 69.4596163 0.5625 70.125 C-3.97299528 69.40886917 -5.20877595 68.15740407 -8 64.5625 C-8.26953125 61.234375 -8.26953125 61.234375 -7.8125 57.3125 C-7.66849208 55.79755021 -7.5322608 54.28184818 -7.40234375 52.765625 C-7.32999512 51.93869141 -7.25764648 51.11175781 -7.18310547 50.25976562 C-6.83946866 45.19776629 -6.8658067 40.13413712 -6.875 35.0625 C-6.87306641 33.99580078 -6.87113281 32.92910156 -6.86914062 31.83007812 C-6.88397663 26.98463809 -6.97991368 22.18768484 -7.40234375 17.359375 C-7.4688916 16.58271484 -7.53543945 15.80605469 -7.60400391 15.00585938 C-7.79804042 12.96461339 -8.03219079 10.92729013 -8.26953125 8.890625 C-8 5.5625 -8 5.5625 -5.69921875 2.64453125 C-3 0.5625 -3 0.5625 0 0 Z " fill="#000000" transform="translate(456,236.4375)"/>
<path d="M0 0 C2.69921875 2.08203125 2.69921875 2.08203125 5 5 C5.26953125 8.328125 5.26953125 8.328125 4.8125 12.25 C4.66849208 13.76494979 4.5322608 15.28065182 4.40234375 16.796875 C4.32999512 17.62380859 4.25764648 18.45074219 4.18310547 19.30273438 C3.83946866 24.36473371 3.8658067 29.42836288 3.875 34.5 C3.87306641 35.56669922 3.87113281 36.63339844 3.86914062 37.73242188 C3.88397663 42.57786191 3.97991368 47.37481516 4.40234375 52.203125 C4.50216553 53.36811523 4.50216553 53.36811523 4.60400391 54.55664062 C4.79804042 56.59788661 5.03219079 58.63520987 5.26953125 60.671875 C5 64 5 64 2.734375 66.91796875 C-0 69 -0 69 -3.5625 69.5625 C-7.62873373 68.8971163 -8.51414933 68.21023902 -11 65 C-15.55569838 47.61528306 -16.06457474 21.28793655 -11 4 C-7.43572086 0.41827741 -5.07705555 -0.95194792 0 0 Z " fill="#000000" transform="translate(59,237)"/>
<path d="M0 0 C0.8022551 -0.0033284 1.60451019 -0.0066568 2.43107605 -0.01008606 C4.11591017 -0.01511053 5.80075409 -0.01749579 7.4855957 -0.01733398 C10.02637583 -0.01951699 12.56671841 -0.03771134 15.10742188 -0.05664062 C38.31976642 -0.14093768 38.31976642 -0.14093768 42.98754883 3.56176758 C44.90917475 6.04504728 45.1062996 8.06373999 45.23046875 11.16796875 C43.10003397 15.73318614 43.10003397 15.73318614 40.23046875 17.16796875 C38.30631722 17.27452197 36.37847635 17.31680633 34.45141602 17.32910156 C33.23998428 17.33870911 32.02855255 17.34831665 30.78041077 17.35821533 C28.80856056 17.36459015 28.80856056 17.36459015 26.796875 17.37109375 C25.43928525 17.37684498 24.08169553 17.38260272 22.72410583 17.3883667 C19.87685772 17.39887489 17.02963783 17.40471894 14.18237305 17.40820312 C10.53257752 17.41369185 6.88315433 17.43772815 3.23347569 17.46617508 C0.42908128 17.48478989 -2.37522317 17.49000639 -5.17967415 17.491539 C-7.1800022 17.4960417 -9.18028211 17.51469244 -11.18052673 17.5335083 C-12.39511063 17.5305072 -13.60969452 17.5275061 -14.86108398 17.52441406 C-16.46753029 17.52988251 -16.46753029 17.52988251 -18.10643005 17.53546143 C-20.76953125 17.16796875 -20.76953125 17.16796875 -22.5841217 15.82537842 C-24.39917959 13.28761036 -24.64575812 11.26229688 -24.76953125 8.16796875 C-23.10730444 4.31860139 -21.57786853 2.75871652 -17.76953125 1.16796875 C-11.94651849 0.00920571 -5.91818179 0.00881519 0 0 Z " fill="#000000" transform="translate(245.76953125,61.83203125)"/>
</svg>
